<svg width="177" height="146" viewBox="0 0 177 146" fill="none" xmlns="http://www.w3.org/2000/svg">
<path d="M73.48 40.96L64.84 32H83.88L75.24 40.96L51.24 99.2V112H47.24C41.2667 134.293 31.7733 145.44 18.76 145.44C13.4267 145.44 9 143.947 5.48 140.96C2.06667 138.08 0.36 134.293 0.36 129.6C0.36 125.333 2.06667 121.493 5.48 118.08C8.89333 114.667 13.3733 112.213 18.92 110.72L43.56 104.32L14.12 40.96L5.48 32H34.28L25.64 40.96L50.92 95.68L73.48 40.96ZM46.76 111.2L44.04 105.44L19.4 111.84C15.0267 113.013 11.1867 114.987 7.88 117.76C4.68 120.533 3.08 123.68 3.08 127.2C3.08 132.96 7.56 135.84 16.52 135.84C22.4933 135.84 28.0933 133.493 33.32 128.8C38.5467 124.107 43.0267 118.24 46.76 111.2ZM86.935 112L95.575 102.56V9.43999L86.935 -7.62939e-06H120.375C135.842 0.106658 149.015 5.65333 159.895 16.64C170.775 27.52 176.215 40.6933 176.215 56.16C176.215 71.6267 170.722 84.8 159.735 95.68C148.855 106.56 135.682 112 120.215 112H86.935ZM105.175 110.88H120.215C132.375 110.88 142.775 105.547 151.415 94.88C160.055 84.2133 164.375 71.3067 164.375 56.16C164.375 41.0133 160.055 28.0533 151.415 17.28C142.882 6.50666 132.535 1.12 120.375 1.12H105.175V110.88Z" fill="black"/>
</svg>
