<svg width="328" height="192" viewBox="0 0 328 192" fill="none" xmlns="http://www.w3.org/2000/svg">
<path d="M117.784 32.168L110.872 25H126.104L119.192 32.168L99.992 78.76V89H96.792C92.0133 106.835 84.4187 115.752 74.008 115.752C69.7413 115.752 66.2 114.557 63.384 112.168C60.6533 109.864 59.288 106.835 59.288 103.08C59.288 99.6667 60.6533 96.5947 63.384 93.864C66.1147 91.1333 69.6987 89.1707 74.136 87.976L93.848 82.856L70.296 32.168L63.384 25H86.424L79.512 32.168L99.736 75.944L117.784 32.168ZM96.408 88.36L94.232 83.752L74.52 88.872C71.0213 89.8107 67.9493 91.3893 65.304 93.608C62.744 95.8267 61.464 98.344 61.464 101.16C61.464 105.768 65.048 108.072 72.216 108.072C76.9947 108.072 81.4747 106.195 85.656 102.44C89.8373 98.6853 93.4213 93.992 96.408 88.36ZM171.531 42.024V81.832L178.443 89H163.851V73.64C162.144 78.76 159.371 82.6427 155.531 85.288C151.776 87.9333 147.296 89.256 142.091 89.256C135.947 89.256 130.614 87.1653 126.091 82.984C121.654 78.7173 119.435 73.512 119.435 67.368C119.435 61.0533 121.568 55.9333 125.835 52.008C130.187 48.0827 135.606 46.12 142.091 46.12C147.382 46.12 151.734 47.272 155.147 49.576C149.259 43.0907 142.646 39.848 135.307 39.848H129.547C135.179 29.7787 143.328 24.744 153.995 24.744C159.371 24.744 163.595 26.28 166.667 29.352C169.824 32.424 171.446 36.648 171.531 42.024ZM163.851 41.128C163.851 31.3147 160.395 26.408 153.483 26.408C145.888 26.408 140.939 30.6747 138.635 39.208C144.182 39.976 149.387 42.7493 154.251 47.528C159.2 52.2213 162.4 57.2987 163.851 62.76V41.128ZM163.723 68.648C163.723 63.272 161.974 58.3227 158.475 53.8C154.976 49.2773 150.155 47.016 144.011 47.016C138.891 47.016 134.795 48.68 131.723 52.008C128.651 55.2507 127.115 59.3893 127.115 64.424C127.115 70.1413 129.163 75.0907 133.259 79.272C137.44 83.368 142.219 85.416 147.595 85.416C152.374 85.416 156.256 83.752 159.243 80.424C162.23 77.096 163.723 73.1707 163.723 68.648ZM202.195 51.112C209.278 54.184 214.014 56.6587 216.403 58.536C221.438 62.4613 223.955 67.5387 223.955 73.768C223.955 78.2907 222.12 81.96 218.451 84.776C214.867 87.592 210.472 89 205.267 89H183.891L180.563 74.024L194.259 86.056C197.843 87.5067 201.512 88.232 205.267 88.232C209.79 88.232 213.672 87.1653 216.915 85.032C220.243 82.8133 221.907 80.04 221.907 76.712C221.907 75.2613 221.395 73.8107 220.371 72.36C219.432 70.824 218.408 69.5867 217.299 68.648C216.19 67.624 214.483 66.472 212.179 65.192C209.96 63.8267 208.296 62.888 207.187 62.376C206.078 61.864 204.286 61.0107 201.811 59.816C198.824 58.536 196.051 57.0853 193.491 55.464C190.931 53.8427 188.456 51.5387 186.067 48.552C183.678 45.5653 182.483 42.408 182.483 39.08C182.483 34.5573 184.019 31.1013 187.091 28.712C190.163 26.2373 194.003 25 198.611 25H217.171L220.499 39.464L207.315 27.688C204.499 26.408 201.598 25.768 198.611 25.768C194.771 25.768 191.443 26.664 188.627 28.456C185.811 30.248 184.403 32.552 184.403 35.368C184.403 40.9147 190.334 46.1627 202.195 51.112ZM281.186 47.272V81.832L288.098 89H266.594L273.506 81.832V46.76C273.506 40.9573 271.757 36.1787 268.258 32.424C264.845 28.584 260.791 26.664 256.098 26.664C253.367 26.664 250.893 27.304 248.674 28.584C246.455 29.864 243.853 31.8693 240.866 34.6V81.832L247.778 89H226.274L233.186 81.832V19.624C233.186 13.6507 234.637 8.95733 237.538 5.544C240.525 2.04533 244.109 0.295998 248.29 0.295998C252.215 0.295998 255.543 1.66133 258.274 4.392C261.09 7.03733 262.498 10.3227 262.498 14.248C262.498 18.9413 260.45 22.568 256.354 25.128C262.839 24.1893 268.599 25.7253 273.634 29.736C278.669 33.6613 281.186 39.5067 281.186 47.272ZM253.026 25.768C258.743 23.6347 261.602 19.7947 261.602 14.248C261.602 10.92 260.493 8.06133 258.274 5.672C256.141 3.19733 253.666 1.96 250.85 1.96C248.034 1.96 245.645 3.32533 243.682 6.056C241.805 8.78666 240.866 12.6693 240.866 17.704V33.32C245.047 29.5653 249.101 27.048 253.026 25.768Z" fill="#FDFAFA"/>
<path d="M0.0480001 191L6.96 183.448V108.952L0.0480001 101.4H26.8C39.1733 101.485 49.712 105.923 58.416 114.712C67.12 123.416 71.472 133.955 71.472 146.328C71.472 158.701 67.0773 169.24 58.288 177.944C49.584 186.648 39.0453 191 26.672 191H0.0480001ZM14.64 190.104H26.672C36.4 190.104 44.72 185.837 51.632 177.304C58.544 168.771 62 158.445 62 146.328C62 134.211 58.544 123.843 51.632 115.224C44.8053 106.605 36.528 102.296 26.8 102.296H14.64V190.104ZM132.96 127V191H129.248L125.024 181.656C118.197 188.056 111.456 191.256 104.8 191.256C98.9973 191.256 94.0053 189.336 89.824 185.496C85.6427 181.571 83.552 176.109 83.552 169.112V136.216L76.64 131.608L91.232 127V169.496C91.232 175.299 92.9387 180.077 96.352 183.832C99.7653 187.587 103.819 189.464 108.512 189.464C113.547 189.464 119.136 186.307 125.28 179.992V136.216L118.368 131.608L132.96 127ZM194.311 149.272V183.832L201.223 191H179.719L186.631 183.832V148.76C186.631 142.957 184.882 138.179 181.383 134.424C177.97 130.584 173.916 128.664 169.223 128.664C166.492 128.664 164.018 129.304 161.799 130.584C159.58 131.864 156.978 133.869 153.991 136.6V183.832L160.903 191H139.399L146.311 183.832V121.624C146.311 115.651 147.762 110.957 150.663 107.544C153.65 104.045 157.234 102.296 161.415 102.296C165.34 102.296 168.668 103.661 171.399 106.392C174.215 109.037 175.623 112.323 175.623 116.248C175.623 120.941 173.575 124.568 169.479 127.128C175.964 126.189 181.724 127.725 186.759 131.736C191.794 135.661 194.311 141.507 194.311 149.272ZM166.151 127.768C171.868 125.635 174.727 121.795 174.727 116.248C174.727 112.92 173.618 110.061 171.399 107.672C169.266 105.197 166.791 103.96 163.975 103.96C161.159 103.96 158.77 105.325 156.807 108.056C154.93 110.787 153.991 114.669 153.991 119.704V135.32C158.172 131.565 162.226 129.048 166.151 127.768ZM255.281 144.024V183.832L262.193 191H247.601V175.64C245.894 180.76 243.121 184.643 239.281 187.288C235.526 189.933 231.046 191.256 225.841 191.256C219.697 191.256 214.364 189.165 209.841 184.984C205.404 180.717 203.185 175.512 203.185 169.368C203.185 163.053 205.318 157.933 209.585 154.008C213.937 150.083 219.356 148.12 225.841 148.12C231.132 148.12 235.484 149.272 238.897 151.576C233.009 145.091 226.396 141.848 219.057 141.848H213.297C218.929 131.779 227.078 126.744 237.745 126.744C243.121 126.744 247.345 128.28 250.417 131.352C253.574 134.424 255.196 138.648 255.281 144.024ZM247.601 143.128C247.601 133.315 244.145 128.408 237.233 128.408C229.638 128.408 224.689 132.675 222.385 141.208C227.932 141.976 233.137 144.749 238.001 149.528C242.95 154.221 246.15 159.299 247.601 164.76V143.128ZM247.473 170.648C247.473 165.272 245.724 160.323 242.225 155.8C238.726 151.277 233.905 149.016 227.761 149.016C222.641 149.016 218.545 150.68 215.473 154.008C212.401 157.251 210.865 161.389 210.865 166.424C210.865 172.141 212.913 177.091 217.009 181.272C221.19 185.368 225.969 187.416 231.345 187.416C236.124 187.416 240.006 185.752 242.993 182.424C245.98 179.096 247.473 175.171 247.473 170.648ZM320.853 148.76V183.832L327.765 191H306.261L313.173 183.832V148.248C313.173 142.445 311.466 137.709 308.053 134.04C304.64 130.285 300.629 128.408 296.021 128.408C290.901 128.408 285.312 131.565 279.253 137.88V183.832L286.165 191H264.661L271.573 183.832V136.344L264.661 131.736L279.253 127.128V136.472C282.837 133.059 286.165 130.584 289.237 129.048C292.309 127.427 295.808 126.616 299.733 126.616C305.536 126.616 310.485 128.579 314.581 132.504C318.762 136.344 320.853 141.763 320.853 148.76Z" fill="#FEFAFA"/>
</svg>
